<svg width="180" height="33" viewBox="0 0 180 33" fill="none" xmlns="http://www.w3.org/2000/svg">
<path fill-rule="evenodd" clip-rule="evenodd" d="M23.9965 24.5299L26.3379 22.1881L29.4775 25.3229L27.1201 27.6647C26.0825 28.7015 24.6757 29.2838 23.209 29.2838C21.7422 29.2838 20.3355 28.7015 19.2978 27.6647L14.5937 22.9652C13.5571 21.9273 12.9749 20.5203 12.9749 19.0534C12.9749 17.5864 13.5571 16.1794 14.5937 15.1415L19.3544 10.3789L22.4781 13.519L17.7333 18.2657C17.6298 18.3686 17.5477 18.4909 17.4917 18.6256C17.4357 18.7603 17.4069 18.9048 17.4069 19.0507C17.4069 19.1966 17.4357 19.3411 17.4917 19.4758C17.5477 19.6105 17.6298 19.7329 17.7333 19.8357L22.432 24.5299C22.6396 24.7373 22.9209 24.8537 23.2143 24.8537C23.5076 24.8537 23.789 24.7373 23.9965 24.5299Z" fill="url(#paint0_linear_449_28)"/>
<path fill-rule="evenodd" clip-rule="evenodd" d="M37.733 10.6509C37.6745 10.7893 37.5947 10.9064 37.4989 11.0075L26.2534 22.2549L29.3823 25.3897L40.6172 14.1476C41.6538 13.1097 42.236 11.7027 42.236 10.2358C42.236 8.76879 41.6538 7.36181 40.6172 6.32395L35.9184 1.61911C34.8807 0.582353 33.474 0 32.0072 0C30.5405 0 29.1338 0.582353 28.0961 1.61911L24.8176 4.88196L27.9519 8.01674L31.2197 4.74857C31.4272 4.54122 31.7086 4.42475 32.0019 4.42475C32.2953 4.42475 32.5766 4.54122 32.7842 4.74857L37.4776 9.44276C37.6335 9.59718 37.7401 9.79449 37.7837 10.0096C37.8273 10.2247 37.8059 10.4479 37.7224 10.6509H37.7277H37.733Z" fill="url(#paint1_linear_449_28)"/>
<path d="M24.5407 14.722L22.1989 17.0634L22.1989 17.0794L19.794 19.4668L22.9341 22.6011L27.6755 17.851C28.7122 16.8133 29.2946 15.4065 29.2946 13.9398C29.2946 12.4731 28.7122 11.0663 27.6754 10.0286L22.9706 5.32455C21.9328 4.28796 20.5258 3.7057 19.0588 3.7057C17.5918 3.7057 16.1848 4.28796 15.147 5.32455L9.19189 11.2792L12.332 14.4082L18.2764 8.46415C18.484 8.25683 18.7654 8.14037 19.0588 8.14037C19.3522 8.14037 19.6336 8.25683 19.8412 8.46415L24.5407 13.1576C24.748 13.3651 24.8645 13.6465 24.8645 13.9398C24.8645 14.2332 24.748 14.5145 24.5407 14.722Z" fill="url(#paint2_linear_449_28)"/>
<path d="M4.51439 22.3349C4.56762 22.2018 4.65277 22.0794 4.75389 21.9783L7.10099 19.6316L7.09567 19.621L10.2358 16.492L12.3827 14.3568L9.24791 11.2172L1.61911 18.8547C0.582352 19.8924 -5.1146e-07 21.2992 -4.47347e-07 22.7659C-3.83234e-07 24.2326 0.582353 25.6394 1.61911 26.6771L6.32395 31.3812C7.36181 32.4177 8.76879 33 10.2358 33C11.7027 33 13.1097 32.4177 14.1476 31.3812L17.3235 28.2003L14.1887 25.0714L11.0235 28.2362C10.9206 28.3397 10.7983 28.4218 10.6635 28.4778C10.5288 28.5338 10.3843 28.5627 10.2384 28.5627C10.0925 28.5627 9.94805 28.5338 9.81333 28.4778C9.6786 28.4218 9.55628 28.3397 9.45341 28.2362L4.75389 23.5428C4.59881 23.3878 4.49325 23.1903 4.45062 22.9752C4.40798 22.7602 4.43017 22.5373 4.51439 22.3349Z" fill="url(#paint3_linear_449_28)"/>
<path d="M55.6446 26.6131C54.6515 26.6131 53.7368 26.4306 52.9005 26.0657C52.0643 25.7008 51.3413 25.1882 50.7315 24.528C50.1217 23.8677 49.6513 23.1031 49.3203 22.2343C48.9892 21.3481 48.8237 20.3925 48.8237 19.3673V18.8199C48.8237 17.8121 48.9805 16.8651 49.2941 15.979C49.6252 15.0928 50.0781 14.3195 50.6531 13.6593C51.2454 12.999 51.951 12.4864 52.7699 12.1215C53.6061 11.7392 54.5295 11.5481 55.54 11.5481C56.655 11.5481 57.6307 11.7913 58.467 12.2779C59.3207 12.747 60.0001 13.4594 60.5054 14.4151C61.0106 15.3708 61.2894 16.5697 61.3416 18.0119L60.2702 16.7609V7.11719H63.9027V26.1439H61.028V20.1231H61.6552C61.603 21.5653 61.3068 22.773 60.7667 23.746C60.2266 24.7017 59.5123 25.4228 58.6238 25.9094C57.7527 26.3785 56.7596 26.6131 55.6446 26.6131ZM56.4547 23.5636C57.169 23.5636 57.8223 23.4072 58.4147 23.0944C59.0071 22.7643 59.4775 22.2951 59.8259 21.687C60.1918 21.0614 60.3747 20.3316 60.3747 19.4976V18.455C60.3747 17.621 60.1918 16.9259 59.8259 16.3699C59.46 15.7965 58.9809 15.3621 58.3886 15.0667C57.7962 14.7539 57.1516 14.5976 56.4547 14.5976C55.6707 14.5976 54.9738 14.7887 54.364 15.171C53.7717 15.5359 53.3013 16.0571 52.9528 16.7348C52.6218 17.4125 52.4563 18.2031 52.4563 19.1066C52.4563 20.0102 52.6305 20.8008 52.9789 21.4785C53.3274 22.1388 53.7978 22.6513 54.3902 23.0162C54.9999 23.3811 55.6881 23.5636 56.4547 23.5636Z" fill="white"/>
<path d="M76.6354 26.1439V21.9476H76.0343V17.2822C76.0343 16.4655 75.834 15.8573 75.4333 15.4577C75.0326 15.058 74.4141 14.8582 73.5778 14.8582C73.1422 14.8582 72.6196 14.8669 72.0098 14.8843C71.4 14.9016 70.7815 14.9277 70.1543 14.9625C69.5445 14.9798 68.9957 15.0059 68.5079 15.0406V11.9651C68.9086 11.9303 69.3616 11.8956 69.8669 11.8608C70.3721 11.8261 70.8861 11.8087 71.4087 11.8087C71.9488 11.7913 72.4541 11.7826 72.9245 11.7826C74.3879 11.7826 75.5988 11.9738 76.557 12.3561C77.5327 12.7383 78.2644 13.3378 78.7522 14.1545C79.2575 14.9711 79.5101 16.0398 79.5101 17.3603V26.1439H76.6354ZM72.0621 26.5088C71.0342 26.5088 70.1282 26.3264 69.3442 25.9615C68.5776 25.5966 67.9765 25.0753 67.541 24.3976C67.1228 23.72 66.9138 22.9033 66.9138 21.9476C66.9138 20.9051 67.1664 20.0536 67.6716 19.3933C68.1943 18.7331 68.9173 18.2378 69.8407 17.9077C70.7815 17.5775 71.8791 17.4125 73.1335 17.4125H76.4263V19.5758H73.0813C72.245 19.5758 71.6004 19.7843 71.1474 20.2013C70.7118 20.601 70.4941 21.1223 70.4941 21.7652C70.4941 22.4081 70.7118 22.9294 71.1474 23.329C71.6004 23.7287 72.245 23.9285 73.0813 23.9285C73.5865 23.9285 74.0482 23.8416 74.4663 23.6678C74.9019 23.4767 75.2591 23.1639 75.5378 22.7295C75.834 22.2778 75.9995 21.6696 76.0343 20.9051L76.9229 21.9216C76.8358 22.912 76.5919 23.746 76.1911 24.4237C75.8079 25.1014 75.2678 25.6226 74.5709 25.9875C73.8914 26.3351 73.0551 26.5088 72.0621 26.5088Z" fill="white"/>
<path d="M89.5686 26.3264C88.2619 26.3264 87.1818 26.1613 86.3281 25.8312C85.4918 25.4836 84.8646 24.9102 84.4465 24.1109C84.0283 23.2943 83.8193 22.1996 83.8193 20.8269L83.8454 8.00336H87.2427L87.2166 21.0614C87.2166 21.7565 87.3995 22.2951 87.7654 22.6774C88.1487 23.0423 88.6888 23.2248 89.3857 23.2248H91.607V26.3264H89.5686ZM81.5718 14.6497V11.9912H91.607V14.6497H81.5718Z" fill="white"/>
<path d="M103.203 26.1439V21.9476H102.602V17.2822C102.602 16.4655 102.401 15.8573 102.001 15.4577C101.6 15.058 100.981 14.8582 100.145 14.8582C99.7095 14.8582 99.1869 14.8669 98.5771 14.8843C97.9673 14.9016 97.3488 14.9277 96.7216 14.9625C96.1118 14.9798 95.563 15.0059 95.0752 15.0406V11.9651C95.4759 11.9303 95.9289 11.8956 96.4341 11.8608C96.9394 11.8261 97.4533 11.8087 97.976 11.8087C98.5161 11.7913 99.0214 11.7826 99.4918 11.7826C100.955 11.7826 102.166 11.9738 103.124 12.3561C104.1 12.7383 104.832 13.3378 105.32 14.1545C105.825 14.9711 106.077 16.0398 106.077 17.3603V26.1439H103.203ZM98.6293 26.5088C97.6014 26.5088 96.6955 26.3264 95.9115 25.9615C95.1449 25.5966 94.5438 25.0753 94.1083 24.3976C93.6901 23.72 93.4811 22.9033 93.4811 21.9476C93.4811 20.9051 93.7337 20.0536 94.2389 19.3933C94.7616 18.7331 95.4846 18.2378 96.408 17.9077C97.3488 17.5775 98.4464 17.4125 99.7008 17.4125H102.994V19.5758H99.6486C98.8123 19.5758 98.1677 19.7843 97.7147 20.2013C97.2791 20.601 97.0613 21.1223 97.0613 21.7652C97.0613 22.4081 97.2791 22.9294 97.7147 23.329C98.1677 23.7287 98.8123 23.9285 99.6486 23.9285C100.154 23.9285 100.615 23.8416 101.034 23.6678C101.469 23.4767 101.826 23.1639 102.105 22.7295C102.401 22.2778 102.567 21.6696 102.602 20.9051L103.49 21.9216C103.403 22.912 103.159 23.746 102.758 24.4237C102.375 25.1014 101.835 25.6226 101.138 25.9875C100.459 26.3351 99.6224 26.5088 98.6293 26.5088Z" fill="white"/>
<path d="M116.267 26.6391C115.03 26.6391 113.958 26.4306 113.052 26.0136C112.164 25.5966 111.414 25.0405 110.805 24.3455C110.212 23.6505 109.768 22.8685 109.472 21.9997C109.176 21.1309 109.028 20.2448 109.028 19.3412V18.846C109.028 17.8903 109.176 16.9781 109.472 16.1093C109.785 15.2231 110.247 14.4412 110.857 13.7635C111.467 13.0685 112.216 12.5211 113.104 12.1215C114.01 11.7045 115.056 11.4959 116.24 11.4959C117.477 11.4959 118.584 11.7392 119.559 12.2257C120.535 12.6949 121.31 13.3552 121.885 14.2066C122.478 15.058 122.809 16.0485 122.878 17.1779H119.35C119.263 16.4481 118.95 15.8399 118.409 15.3534C117.887 14.8669 117.164 14.6236 116.24 14.6236C115.439 14.6236 114.768 14.8148 114.228 15.197C113.705 15.5793 113.313 16.1093 113.052 16.7869C112.791 17.4472 112.66 18.2118 112.66 19.0806C112.66 19.9146 112.782 20.6705 113.026 21.3481C113.287 22.0258 113.679 22.5558 114.202 22.9381C114.742 23.3203 115.43 23.5115 116.267 23.5115C116.894 23.5115 117.434 23.3985 117.887 23.1726C118.34 22.9467 118.697 22.634 118.958 22.2343C119.237 21.8347 119.411 21.3829 119.481 20.879H123.009C122.939 22.0258 122.6 23.0336 121.99 23.9024C121.397 24.7538 120.605 25.4228 119.612 25.9094C118.636 26.3959 117.521 26.6391 116.267 26.6391Z" fill="white"/>
<path d="M125.919 26.1439V7.11719H129.552V18.2205H128.924C128.924 16.7956 129.107 15.588 129.473 14.5976C129.839 13.6071 130.379 12.8513 131.093 12.33C131.825 11.8087 132.749 11.5481 133.864 11.5481H134.02C135.641 11.5481 136.869 12.1041 137.705 13.2162C138.541 14.3282 138.96 15.9442 138.96 18.0641V26.1439H135.327V17.7252C135.327 16.8217 135.066 16.1093 134.543 15.588C134.038 15.0667 133.367 14.8061 132.531 14.8061C131.642 14.8061 130.919 15.1015 130.362 15.6923C129.822 16.2657 129.552 17.0215 129.552 17.9598V26.1439H125.919Z" fill="white"/>
<path d="M151.463 26.1439V21.9476H150.862V17.2822C150.862 16.4655 150.661 15.8573 150.261 15.4577C149.86 15.058 149.241 14.8582 148.405 14.8582C147.97 14.8582 147.447 14.8669 146.837 14.8843C146.227 14.9016 145.609 14.9277 144.982 14.9625C144.372 14.9798 143.823 15.0059 143.335 15.0406V11.9651C143.736 11.9303 144.189 11.8956 144.694 11.8608C145.199 11.8261 145.713 11.8087 146.236 11.8087C146.776 11.7913 147.281 11.7826 147.752 11.7826C149.215 11.7826 150.426 11.9738 151.384 12.3561C152.36 12.7383 153.092 13.3378 153.58 14.1545C154.085 14.9711 154.337 16.0398 154.337 17.3603V26.1439H151.463ZM146.889 26.5088C145.862 26.5088 144.956 26.3264 144.172 25.9615C143.405 25.5966 142.804 25.0753 142.368 24.3976C141.95 23.72 141.741 22.9033 141.741 21.9476C141.741 20.9051 141.994 20.0536 142.499 19.3933C143.022 18.7331 143.745 18.2378 144.668 17.9077C145.609 17.5775 146.706 17.4125 147.961 17.4125H151.254V19.5758H147.909C147.072 19.5758 146.428 19.7843 145.975 20.2013C145.539 20.601 145.321 21.1223 145.321 21.7652C145.321 22.4081 145.539 22.9294 145.975 23.329C146.428 23.7287 147.072 23.9285 147.909 23.9285C148.414 23.9285 148.876 23.8416 149.294 23.6678C149.729 23.4767 150.086 23.1639 150.365 22.7295C150.661 22.2778 150.827 21.6696 150.862 20.9051L151.75 21.9216C151.663 22.912 151.419 23.746 151.019 24.4237C150.635 25.1014 150.095 25.6226 149.398 25.9875C148.719 26.3351 147.882 26.5088 146.889 26.5088Z" fill="white"/>
<path d="M158.908 26.1439V11.9912H162.54V26.1439H158.908ZM156.922 14.7018V11.9912H162.54V14.7018H156.922ZM160.241 10.297C159.526 10.297 158.995 10.1145 158.647 9.74965C158.316 9.36738 158.15 8.88954 158.15 8.31613C158.15 7.74272 158.316 7.27357 158.647 6.90867C158.995 6.54378 159.526 6.36133 160.241 6.36133C160.955 6.36133 161.478 6.54378 161.809 6.90867C162.14 7.27357 162.305 7.74272 162.305 8.31613C162.305 8.88954 162.14 9.36738 161.809 9.74965C161.478 10.1145 160.955 10.297 160.241 10.297Z" fill="white"/>
<path d="M166.727 26.1439V11.9912H169.602V18.0641H169.34C169.34 16.6219 169.532 15.4229 169.915 14.4672C170.299 13.4942 170.865 12.7644 171.614 12.2779C172.38 11.7913 173.33 11.5481 174.462 11.5481H174.619C176.309 11.5481 177.59 12.0954 178.461 13.1901C179.332 14.2674 179.768 15.8834 179.768 18.038V26.1439H176.135V17.7252C176.135 16.8564 175.882 16.1527 175.377 15.6141C174.889 15.0754 174.21 14.8061 173.339 14.8061C172.45 14.8061 171.727 15.0841 171.17 15.6401C170.63 16.1788 170.359 16.9086 170.359 17.8295V26.1439H166.727Z" fill="white"/>
<defs>
<linearGradient id="paint0_linear_449_28" x1="36.0319" y1="5.40399" x2="18.0672" y2="23.0541" gradientUnits="userSpaceOnUse">
<stop stop-color="#F46837"/>
<stop offset="1" stop-color="#945DD6"/>
</linearGradient>
<linearGradient id="paint1_linear_449_28" x1="36.0447" y1="5.6075" x2="18.0673" y2="23.3629" gradientUnits="userSpaceOnUse">
<stop stop-color="#F46837"/>
<stop offset="1" stop-color="#945DD6"/>
</linearGradient>
<linearGradient id="paint2_linear_449_28" x1="5.92412" y1="27.4317" x2="23.8831" y2="10.239" gradientUnits="userSpaceOnUse">
<stop stop-color="#13ADC7"/>
<stop offset="1" stop-color="#945DD6"/>
</linearGradient>
<linearGradient id="paint3_linear_449_28" x1="5.76963" y1="27.5861" x2="23.5741" y2="9.77574" gradientUnits="userSpaceOnUse">
<stop stop-color="#13ADC7"/>
<stop offset="1" stop-color="#945DD6"/>
</linearGradient>
</defs>
</svg>
