<svg width="1747" height="321" viewBox="0 0 1747 321" fill="none" xmlns="http://www.w3.org/2000/svg">
<path fill-rule="evenodd" clip-rule="evenodd" d="M233.128 238.309L255.875 215.559L286.376 246.013L263.474 268.764C253.393 278.836 239.727 284.494 225.477 284.494C211.228 284.494 197.561 278.836 187.48 268.764L141.779 223.108C131.709 213.025 126.052 199.356 126.052 185.104C126.052 170.853 131.709 157.184 141.779 147.101L188.03 100.832L218.376 131.338L172.281 177.452C171.276 178.451 170.478 179.64 169.934 180.949C169.39 182.257 169.109 183.661 169.109 185.079C169.109 186.496 169.39 187.9 169.934 189.208C170.478 190.517 171.276 191.706 172.281 192.705L217.929 238.309C219.946 240.324 222.679 241.455 225.529 241.455C228.379 241.455 231.112 240.324 233.128 238.309Z" fill="url(#paint0_linear_417_234)"/>
<path fill-rule="evenodd" clip-rule="evenodd" d="M366.578 103.474C366.009 104.818 365.233 105.956 364.303 106.938L255.052 216.208L285.45 246.662L394.597 137.445C404.668 127.362 410.325 113.693 410.325 99.441C410.325 85.1892 404.668 71.5203 394.597 61.4375L348.949 15.7298C338.868 5.65759 325.201 0 310.952 0C296.702 0 283.035 5.65759 272.954 15.7298L241.104 47.4285L271.554 77.8831L303.3 46.1326C305.317 44.1182 308.05 42.9867 310.9 42.9867C313.75 42.9867 316.483 44.1182 318.499 46.1326L364.096 91.7369C365.611 93.2371 366.646 95.1539 367.07 97.2438C367.493 99.3337 367.286 101.502 366.474 103.474H366.526H366.578Z" fill="url(#paint1_linear_417_234)"/>
<path d="M238.413 143.025L215.663 165.771L215.663 165.926L192.299 189.12L222.805 219.57L268.868 173.423C278.94 163.341 284.597 149.675 284.597 135.425C284.597 121.176 278.94 107.509 268.868 97.4278L223.16 51.7275C213.077 41.657 199.408 36.0003 185.156 36.0003C170.904 36.0003 157.236 41.657 147.153 51.7275L89.2988 109.578L119.805 139.976L177.556 82.2288C179.572 80.2147 182.306 79.0834 185.156 79.0834C188.007 79.0834 190.74 80.2147 192.757 82.2288L238.413 127.826C240.427 129.842 241.559 132.575 241.559 135.425C241.559 138.275 240.427 141.008 238.413 143.025Z" fill="url(#paint2_linear_417_234)"/>
<path d="M43.8576 216.984C44.3746 215.692 45.2019 214.503 46.1843 213.521L68.9865 190.722L68.9348 190.619L99.441 160.221L120.298 139.477L89.8439 108.976L15.7298 183.174C5.65758 193.256 -4.96886e-06 206.922 -4.346e-06 221.172C-3.72313e-06 235.421 5.65759 249.088 15.7298 259.169L61.4375 304.869C71.5204 314.94 85.1892 320.597 99.441 320.597C113.693 320.597 127.362 314.94 137.445 304.869L168.298 273.968L137.844 243.57L107.093 274.316C106.094 275.322 104.906 276.119 103.597 276.663C102.288 277.208 100.884 277.488 99.4669 277.488C98.0494 277.488 96.6458 277.208 95.337 276.663C94.0281 276.119 92.8398 275.322 91.8403 274.316L46.1843 228.72C44.6777 227.214 43.6522 225.295 43.238 223.205C42.8237 221.116 43.0394 218.951 43.8576 216.984Z" fill="url(#paint3_linear_417_234)"/>
<path d="M540.589 258.545C530.942 258.545 522.056 256.773 513.931 253.228C505.807 249.683 498.783 244.703 492.859 238.288C486.934 231.873 482.364 224.446 479.149 216.005C475.933 207.396 474.325 198.112 474.325 188.152V182.834C474.325 173.043 475.848 163.843 478.895 155.234C482.111 146.625 486.511 139.113 492.097 132.698C497.852 126.283 504.707 121.303 512.662 117.758C520.786 114.045 529.757 112.188 539.574 112.188C550.406 112.188 559.885 114.551 568.009 119.278C576.303 123.836 582.904 130.757 587.812 140.041C592.721 149.326 595.429 160.974 595.937 174.985L585.527 162.83V69.1415H620.818V253.987H592.89V195.495H598.984C598.476 209.506 595.598 221.238 590.351 230.692C585.104 239.976 578.165 246.982 569.533 251.708C561.07 256.266 551.422 258.545 540.589 258.545ZM548.46 228.919C555.399 228.919 561.747 227.4 567.501 224.361C573.256 221.154 577.826 216.596 581.211 210.688C584.766 204.611 586.543 197.521 586.543 189.418V179.289C586.543 171.187 584.766 164.434 581.211 159.032C577.657 153.462 573.002 149.241 567.248 146.372C561.493 143.333 555.23 141.814 548.46 141.814C540.843 141.814 534.073 143.671 528.149 147.384C522.394 150.929 517.824 155.994 514.439 162.577C511.223 169.161 509.615 176.842 509.615 185.62C509.615 194.398 511.308 202.079 514.693 208.662C518.078 215.077 522.648 220.057 528.403 223.602C534.327 227.147 541.013 228.919 548.46 228.919Z" fill="#333333"/>
<path d="M744.517 253.987V213.22H738.677V167.895C738.677 159.961 736.731 154.052 732.838 150.17C728.945 146.287 722.936 144.346 714.812 144.346C710.58 144.346 705.503 144.43 699.579 144.599C693.655 144.768 687.646 145.021 681.553 145.359C675.628 145.528 670.297 145.781 665.558 146.118V116.239C669.451 115.902 673.851 115.564 678.76 115.226C683.668 114.889 688.661 114.72 693.739 114.72C698.986 114.551 703.895 114.467 708.465 114.467C722.682 114.467 734.446 116.324 743.755 120.037C753.233 123.751 760.342 129.575 765.082 137.509C769.99 145.443 772.444 155.825 772.444 168.654V253.987H744.517ZM700.086 257.532C690.1 257.532 681.299 255.76 673.682 252.215C666.235 248.67 660.395 243.606 656.164 237.022C652.102 230.438 650.07 222.504 650.07 213.22C650.07 203.091 652.525 194.82 657.433 188.405C662.511 181.99 669.535 177.179 678.506 173.972C687.646 170.764 698.309 169.161 710.496 169.161H742.486V190.178H709.988C701.864 190.178 695.601 192.203 691.2 196.255C686.969 200.137 684.853 205.202 684.853 211.447C684.853 217.693 686.969 222.758 691.2 226.64C695.601 230.523 701.864 232.464 709.988 232.464C714.896 232.464 719.382 231.62 723.444 229.932C727.675 228.075 731.145 225.037 733.853 220.816C736.731 216.427 738.339 210.519 738.677 203.091L747.309 212.967C746.463 222.589 744.094 230.692 740.201 237.275C736.477 243.859 731.23 248.923 724.46 252.468C717.858 255.844 709.734 257.532 700.086 257.532Z" fill="#333333"/>
<path d="M870.163 255.76C857.469 255.76 846.975 254.156 838.681 250.949C830.557 247.573 824.463 242.002 820.401 234.237C816.339 226.303 814.308 215.668 814.308 202.332L814.562 77.7508H847.567L847.313 204.611C847.313 211.363 849.091 216.596 852.645 220.31C856.369 223.855 861.616 225.627 868.386 225.627H889.966V255.76H870.163ZM792.474 142.32V116.492H889.966V142.32H792.474Z" fill="#333333"/>
<path d="M1002.62 253.987V213.22H996.78V167.895C996.78 159.961 994.833 154.052 990.94 150.17C987.047 146.287 981.039 144.346 972.914 144.346C968.683 144.346 963.605 144.43 957.681 144.599C951.757 144.768 945.748 145.021 939.655 145.359C933.731 145.528 928.399 145.781 923.66 146.118V116.239C927.553 115.902 931.954 115.564 936.862 115.226C941.771 114.889 946.764 114.72 951.842 114.72C957.089 114.551 961.997 114.467 966.567 114.467C980.785 114.467 992.548 116.324 1001.86 120.037C1011.34 123.751 1018.44 129.575 1023.18 137.509C1028.09 145.443 1030.55 155.825 1030.55 168.654V253.987H1002.62ZM958.189 257.532C948.203 257.532 939.401 255.76 931.785 252.215C924.337 248.67 918.498 243.606 914.266 237.022C910.204 230.438 908.173 222.504 908.173 213.22C908.173 203.091 910.627 194.82 915.536 188.405C920.613 181.99 927.638 177.179 936.608 173.972C945.748 170.764 956.412 169.161 968.598 169.161H1000.59V190.178H968.09C959.966 190.178 953.703 192.203 949.303 196.255C945.071 200.137 942.956 205.202 942.956 211.447C942.956 217.693 945.071 222.758 949.303 226.64C953.703 230.523 959.966 232.464 968.09 232.464C972.999 232.464 977.484 231.62 981.547 229.932C985.778 228.075 989.248 225.037 991.956 220.816C994.833 216.427 996.441 210.519 996.78 203.091L1005.41 212.967C1004.57 222.589 1002.2 230.692 998.303 237.275C994.579 243.859 989.332 248.923 982.562 252.468C975.961 255.844 967.837 257.532 958.189 257.532Z" fill="#333333"/>
<path d="M1129.54 258.798C1117.52 258.798 1107.11 256.773 1098.31 252.721C1089.67 248.67 1082.4 243.268 1076.47 236.516C1070.72 229.763 1066.4 222.167 1063.52 213.726C1060.65 205.286 1059.21 196.677 1059.21 187.899V183.088C1059.21 173.803 1060.65 164.941 1063.52 156.5C1066.57 147.891 1071.06 140.294 1076.98 133.711C1082.9 126.959 1090.18 121.641 1098.81 117.758C1107.62 113.707 1117.77 111.681 1129.28 111.681C1141.3 111.681 1152.05 114.045 1161.53 118.771C1171 123.329 1178.54 129.744 1184.12 138.016C1189.88 146.287 1193.09 155.909 1193.77 166.882H1159.49C1158.65 159.792 1155.6 153.884 1150.35 149.157C1145.28 144.43 1138.25 142.067 1129.28 142.067C1121.5 142.067 1114.98 143.924 1109.73 147.638C1104.65 151.351 1100.85 156.5 1098.31 163.084C1095.77 169.498 1094.5 176.926 1094.5 185.366C1094.5 193.469 1095.68 200.812 1098.05 207.396C1100.59 213.98 1104.4 219.128 1109.48 222.842C1114.73 226.556 1121.41 228.413 1129.54 228.413C1135.63 228.413 1140.88 227.315 1145.28 225.121C1149.68 222.926 1153.15 219.888 1155.69 216.005C1158.39 212.123 1160.09 207.734 1160.76 202.838H1195.04C1194.36 213.98 1191.06 223.77 1185.14 232.211C1179.38 240.483 1171.68 246.982 1162.03 251.708C1152.55 256.435 1141.72 258.798 1129.54 258.798Z" fill="#333333"/>
<path d="M1223.31 253.987V69.1415H1258.6V177.01H1252.51C1252.51 163.168 1254.28 151.436 1257.84 141.814C1261.39 132.192 1266.64 124.848 1273.58 119.784C1280.69 114.72 1289.66 112.188 1300.49 112.188H1302.01C1317.76 112.188 1329.69 117.59 1337.81 128.393C1345.94 139.197 1350 154.896 1350 175.491V253.987H1314.71V172.199C1314.71 163.421 1312.17 156.5 1307.09 151.436C1302.18 146.372 1295.67 143.839 1287.54 143.839C1278.91 143.839 1271.89 146.709 1266.47 152.449C1261.22 158.019 1258.6 165.363 1258.6 174.478V253.987H1223.31Z" fill="#333333"/>
<path d="M1471.47 253.987V213.22H1465.63V167.895C1465.63 159.961 1463.68 154.052 1459.79 150.17C1455.9 146.287 1449.89 144.346 1441.76 144.346C1437.53 144.346 1432.45 144.43 1426.53 144.599C1420.61 144.768 1414.6 145.021 1408.5 145.359C1402.58 145.528 1397.25 145.781 1392.51 146.118V116.239C1396.4 115.902 1400.8 115.564 1405.71 115.226C1410.62 114.889 1415.61 114.72 1420.69 114.72C1425.94 114.551 1430.85 114.467 1435.42 114.467C1449.63 114.467 1461.4 116.324 1470.71 120.037C1480.19 123.751 1487.29 129.575 1492.03 137.509C1496.94 145.443 1499.4 155.825 1499.4 168.654V253.987H1471.47ZM1427.04 257.532C1417.05 257.532 1408.25 255.76 1400.63 252.215C1393.19 248.67 1387.35 243.606 1383.12 237.022C1379.05 230.438 1377.02 222.504 1377.02 213.22C1377.02 203.091 1379.48 194.82 1384.38 188.405C1389.46 181.99 1396.49 177.179 1405.46 173.972C1414.6 170.764 1425.26 169.161 1437.45 169.161H1469.44V190.178H1436.94C1428.82 190.178 1422.55 192.203 1418.15 196.255C1413.92 200.137 1411.8 205.202 1411.8 211.447C1411.8 217.693 1413.92 222.758 1418.15 226.64C1422.55 230.523 1428.82 232.464 1436.94 232.464C1441.85 232.464 1446.33 231.62 1450.4 229.932C1454.63 228.075 1458.1 225.037 1460.8 220.816C1463.68 216.427 1465.29 210.519 1465.63 203.091L1474.26 212.967C1473.41 222.589 1471.05 230.692 1467.15 237.275C1463.43 243.859 1458.18 248.923 1451.41 252.468C1444.81 255.844 1436.69 257.532 1427.04 257.532Z" fill="#333333"/>
<path d="M1543.8 253.987V116.492H1579.09V253.987H1543.8ZM1524.5 142.827V116.492H1579.09V142.827H1524.5ZM1556.75 100.034C1549.81 100.034 1544.64 98.2611 1541.26 94.7161C1538.04 91.0023 1536.44 86.36 1536.44 80.7894C1536.44 75.2187 1538.04 70.6608 1541.26 67.1158C1544.64 63.5708 1549.81 61.7983 1556.75 61.7983C1563.69 61.7983 1568.76 63.5708 1571.98 67.1158C1575.2 70.6608 1576.8 75.2187 1576.8 80.7894C1576.8 86.36 1575.2 91.0023 1571.98 94.7161C1568.76 98.2611 1563.69 100.034 1556.75 100.034Z" fill="#333333"/>
<path d="M1619.76 253.987V116.492H1647.69V175.491H1645.15C1645.15 161.48 1647.01 149.832 1650.73 140.548C1654.46 131.094 1659.96 124.004 1667.24 119.278C1674.68 114.551 1683.91 112.188 1694.91 112.188H1696.43C1712.85 112.188 1725.29 117.505 1733.76 128.14C1742.22 138.606 1746.45 154.306 1746.45 175.238V253.987H1711.16V172.199C1711.16 163.759 1708.71 156.922 1703.8 151.689C1699.06 146.456 1692.46 143.839 1683.99 143.839C1675.36 143.839 1668.34 146.54 1662.92 151.942C1657.67 157.175 1655.05 164.265 1655.05 173.212V253.987H1619.76Z" fill="#333333"/>
<defs>
<linearGradient id="paint0_linear_417_234" x1="350.052" y1="52.5" x2="175.524" y2="223.972" gradientUnits="userSpaceOnUse">
<stop stop-color="#F46837"/>
<stop offset="1" stop-color="#945DD6"/>
</linearGradient>
<linearGradient id="paint1_linear_417_234" x1="350.176" y1="54.4772" x2="175.524" y2="226.972" gradientUnits="userSpaceOnUse">
<stop stop-color="#F46837"/>
<stop offset="1" stop-color="#945DD6"/>
</linearGradient>
<linearGradient id="paint2_linear_417_234" x1="57.5522" y1="266.5" x2="232.025" y2="99.4715" gradientUnits="userSpaceOnUse">
<stop stop-color="#13ADC7"/>
<stop offset="1" stop-color="#945DD6"/>
</linearGradient>
<linearGradient id="paint3_linear_417_234" x1="56.0522" y1="268" x2="229.024" y2="94.9718" gradientUnits="userSpaceOnUse">
<stop stop-color="#13ADC7"/>
<stop offset="1" stop-color="#945DD6"/>
</linearGradient>
</defs>
</svg>
