<svg width="33" height="33" viewBox="0 0 33 33" fill="none" xmlns="http://www.w3.org/2000/svg">
<path fill-rule="evenodd" clip-rule="evenodd" d="M18.7492 22.785L20.5786 20.9554L23.0316 23.4046L21.1898 25.2343C20.379 26.0444 19.2798 26.4994 18.1338 26.4994C16.9878 26.4994 15.8887 26.0444 15.0779 25.2343L11.4025 21.5625C10.5926 20.7516 10.1377 19.6523 10.1377 18.5061C10.1377 17.3599 10.5926 16.2606 11.4025 15.4497L15.1222 11.7285L17.5628 14.182L13.8556 17.8906C13.7748 17.971 13.7106 18.0666 13.6668 18.1719C13.6231 18.2771 13.6005 18.39 13.6005 18.504C13.6005 18.618 13.6231 18.7309 13.6668 18.8362C13.7106 18.9414 13.7748 19.037 13.8556 19.1174L17.5268 22.785C17.689 22.9471 17.9088 23.0381 18.138 23.0381C18.3672 23.0381 18.587 22.9471 18.7492 22.785Z" fill="url(#paint0_linear_426_297)"/>
<path fill-rule="evenodd" clip-rule="evenodd" d="M29.4817 11.941C29.436 12.0491 29.3736 12.1406 29.2988 12.2196L20.5124 21.0074L22.9571 23.4567L31.7352 14.673C32.5451 13.8621 33 12.7628 33 11.6166C33 10.4704 32.5451 9.3711 31.7352 8.5602L28.064 4.88419C27.2532 4.07415 26.1541 3.61914 25.0081 3.61914C23.8621 3.61914 22.7629 4.07415 21.9521 4.88419L19.3906 7.43354L21.8395 9.88282L24.3927 7.32932C24.5549 7.16731 24.7747 7.07631 25.0039 7.07631C25.2331 7.07631 25.4529 7.16731 25.6151 7.32932L29.2822 10.997C29.404 11.1177 29.4873 11.2718 29.5213 11.4399C29.5554 11.608 29.5387 11.7824 29.4734 11.941H29.4776H29.4817Z" fill="url(#paint1_linear_426_297)"/>
<path d="M19.1743 15.1218L17.3446 16.9511L17.3446 16.9636L15.4656 18.8289L17.919 21.2778L21.6235 17.5665C22.4336 16.7557 22.8886 15.6566 22.8886 14.5106C22.8886 13.3646 22.4336 12.2654 21.6235 11.4547L17.9475 7.77926C17.1366 6.96935 16.0373 6.51442 14.8911 6.51442C13.7449 6.51442 12.6456 6.96935 11.8347 7.77926L7.18188 12.4318L9.63532 14.8765L14.2799 10.2323C14.442 10.0703 14.6619 9.97933 14.8911 9.97933C15.1204 9.97933 15.3402 10.0703 15.5024 10.2323L19.1743 13.8994C19.3363 14.0615 19.4273 14.2814 19.4273 14.5106C19.4273 14.7398 19.3363 14.9596 19.1743 15.1218Z" fill="url(#paint2_linear_426_297)"/>
<path d="M3.52721 21.0699C3.56879 20.966 3.63532 20.8703 3.71433 20.7913L5.54818 18.9578L5.54402 18.9495L7.99746 16.5048L9.6749 14.8364L7.22562 12.3834L1.26505 18.3508C0.455006 19.1615 -3.99616e-07 20.2607 -3.49523e-07 21.4067C-2.9943e-07 22.5527 0.455006 23.6518 1.26505 24.4626L4.94105 28.138C5.75196 28.9479 6.85127 29.4028 7.99746 29.4028C9.14364 29.4028 10.243 28.9479 11.0539 28.138L13.5353 25.6527L11.086 23.208L8.6129 25.6808C8.53251 25.7616 8.43695 25.8258 8.33168 25.8695C8.22642 25.9133 8.11354 25.9358 7.99954 25.9358C7.88553 25.9358 7.77265 25.9133 7.66739 25.8695C7.56213 25.8258 7.46656 25.7616 7.38618 25.6808L3.71433 22.0137C3.59316 21.8926 3.51069 21.7383 3.47737 21.5702C3.44406 21.4022 3.4614 21.2281 3.52721 21.0699Z" fill="url(#paint3_linear_426_297)"/>
<defs>
<linearGradient id="paint0_linear_426_297" x1="28.1527" y1="7.84149" x2="14.1164" y2="21.6319" gradientUnits="userSpaceOnUse">
<stop stop-color="#F46837"/>
<stop offset="1" stop-color="#945DD6"/>
</linearGradient>
<linearGradient id="paint1_linear_426_297" x1="28.1626" y1="8.00042" x2="14.1164" y2="21.8731" gradientUnits="userSpaceOnUse">
<stop stop-color="#F46837"/>
<stop offset="1" stop-color="#945DD6"/>
</linearGradient>
<linearGradient id="paint2_linear_426_297" x1="4.62869" y1="25.0522" x2="18.6605" y2="11.619" gradientUnits="userSpaceOnUse">
<stop stop-color="#13ADC7"/>
<stop offset="1" stop-color="#945DD6"/>
</linearGradient>
<linearGradient id="paint3_linear_426_297" x1="4.50795" y1="25.1728" x2="18.4191" y2="11.2572" gradientUnits="userSpaceOnUse">
<stop stop-color="#13ADC7"/>
<stop offset="1" stop-color="#945DD6"/>
</linearGradient>
</defs>
</svg>
