<svg width="1600" height="200" viewBox="0 0 1600 200" fill="none" xmlns="http://www.w3.org/2000/svg">
<rect width="1600" height="200" rx="4" fill="black"/>
<path fill-rule="evenodd" clip-rule="evenodd" d="M540.531 131.633L549.755 122.408L562.123 134.757L552.837 143.982C548.749 148.066 543.207 150.36 537.429 150.36C531.651 150.36 526.109 148.066 522.021 143.982L503.49 125.469C499.407 121.38 497.113 115.838 497.113 110.059C497.113 104.28 499.407 98.737 503.49 94.6485L522.244 75.8866L534.55 88.2567L515.858 106.956C515.451 107.361 515.127 107.843 514.907 108.374C514.686 108.904 514.572 109.473 514.572 110.048C514.572 110.623 514.686 111.192 514.907 111.723C515.127 112.254 515.451 112.735 515.858 113.141L534.368 131.633C535.186 132.45 536.294 132.909 537.45 132.909C538.606 132.909 539.714 132.45 540.531 131.633Z" fill="url(#paint0_linear_466_24)"/>
<path fill-rule="evenodd" clip-rule="evenodd" d="M594.645 76.9581C594.415 77.5032 594.1 77.9645 593.723 78.3628L549.423 122.671L561.749 135.02L606.007 90.7329C610.091 86.6444 612.385 81.1017 612.385 75.3227C612.385 69.5437 610.091 64.0011 606.007 59.9125L587.497 41.3783C583.409 37.2941 577.867 35 572.089 35C566.311 35 560.77 37.2941 556.682 41.3783L543.767 54.232L556.114 66.5811L568.987 53.7065C569.804 52.8897 570.913 52.4308 572.068 52.4308C573.224 52.4308 574.332 52.8897 575.15 53.7065L593.639 72.1988C594.254 72.8071 594.673 73.5843 594.845 74.4318C595.017 75.2792 594.933 76.1586 594.603 76.9581H594.624H594.645Z" fill="url(#paint1_linear_466_24)"/>
<path d="M542.675 92.9955L533.45 102.219L533.45 102.282L523.976 111.687L536.346 124.034L555.024 105.322C559.109 101.234 561.403 95.692 561.403 89.9139C561.403 84.1359 559.109 78.5941 555.024 74.5062L536.49 55.975C532.402 51.8915 526.859 49.5978 521.08 49.5978C515.301 49.5978 509.758 51.8915 505.67 55.975L482.21 79.4329L494.581 91.7591L517.998 68.3431C518.816 67.5264 519.924 67.0677 521.08 67.0677C522.236 67.0677 523.344 67.5264 524.162 68.3431L542.675 86.8324C543.492 87.65 543.951 88.7583 543.951 89.9139C543.951 91.0695 543.492 92.1779 542.675 92.9955Z" fill="url(#paint2_linear_466_24)"/>
<path d="M463.784 122.986C463.994 122.462 464.329 121.98 464.727 121.581L473.974 112.337L473.953 112.295L486.323 99.9686L494.78 91.557L482.431 79.1889L452.378 109.276C448.294 113.364 446 118.906 446 124.684C446 130.462 448.294 136.004 452.378 140.092L470.913 158.623C475.001 162.706 480.544 165 486.323 165C492.102 165 497.644 162.706 501.733 158.623L514.244 146.092L501.895 133.766L489.426 146.234C489.02 146.641 488.539 146.965 488.008 147.185C487.477 147.406 486.908 147.52 486.333 147.52C485.758 147.52 485.189 147.406 484.659 147.185C484.128 146.965 483.646 146.641 483.241 146.234L464.727 127.744C464.117 127.134 463.701 126.356 463.533 125.508C463.365 124.661 463.452 123.783 463.784 122.986Z" fill="url(#paint3_linear_466_24)"/>
<path d="M665.206 139.838C661.294 139.838 657.691 139.12 654.396 137.682C651.102 136.245 648.253 134.225 645.851 131.624C643.449 129.023 641.596 126.011 640.292 122.589C638.988 119.098 638.336 115.333 638.336 111.294V109.138C638.336 105.168 638.954 101.437 640.189 97.9463C641.493 94.4553 643.278 91.4093 645.542 88.8081C647.876 86.207 650.656 84.1877 653.881 82.7502C657.176 81.2443 660.813 80.4913 664.794 80.4913C669.187 80.4913 673.03 81.4497 676.324 83.3663C679.687 85.2145 682.364 88.0209 684.355 91.7857C686.345 95.5506 687.443 100.274 687.649 105.955L683.428 101.027V63.0363H697.738V137.99H686.414V114.272H688.884C688.678 119.953 687.512 124.711 685.384 128.544C683.256 132.309 680.442 135.149 676.942 137.066C673.51 138.914 669.598 139.838 665.206 139.838ZM668.397 127.825C671.211 127.825 673.785 127.209 676.119 125.977C678.452 124.676 680.305 122.828 681.678 120.432C683.119 117.968 683.84 115.093 683.84 111.808V107.701C683.84 104.415 683.119 101.677 681.678 99.4865C680.237 97.2276 678.349 95.5163 676.016 94.3527C673.682 93.1205 671.143 92.5045 668.397 92.5045C665.309 92.5045 662.563 93.2574 660.161 94.7634C657.828 96.2008 655.975 98.2544 654.602 100.924C653.298 103.594 652.646 106.708 652.646 110.268C652.646 113.827 653.332 116.941 654.705 119.611C656.078 122.212 657.931 124.232 660.264 125.669C662.666 127.106 665.377 127.825 668.397 127.825Z" fill="white"/>
<path d="M747.897 137.99V121.459H745.529V103.08C745.529 99.863 744.74 97.4672 743.161 95.8928C741.583 94.3184 739.146 93.5312 735.852 93.5312C734.136 93.5312 732.077 93.5655 729.675 93.6339C727.273 93.7024 724.836 93.805 722.366 93.942C719.963 94.0104 717.801 94.1131 715.88 94.25V82.1342C717.458 81.9973 719.243 81.8604 721.233 81.7235C723.223 81.5866 725.248 81.5181 727.307 81.5181C729.435 81.4497 731.425 81.4154 733.278 81.4154C739.043 81.4154 743.813 82.1684 747.588 83.6743C751.432 85.1802 754.314 87.5418 756.236 90.759C758.226 93.9762 759.222 98.1859 759.222 103.388V137.99H747.897ZM729.881 139.428C725.832 139.428 722.263 138.709 719.174 137.271C716.154 135.834 713.786 133.78 712.071 131.111C710.423 128.441 709.6 125.224 709.6 121.459C709.6 117.352 710.595 113.998 712.585 111.397C714.644 108.796 717.493 106.845 721.13 105.544C724.836 104.244 729.16 103.594 734.102 103.594H747.074V112.116H733.896C730.602 112.116 728.062 112.937 726.278 114.58C724.562 116.154 723.704 118.208 723.704 120.741C723.704 123.273 724.562 125.327 726.278 126.901C728.062 128.475 730.602 129.263 733.896 129.263C735.886 129.263 737.705 128.92 739.352 128.236C741.068 127.483 742.475 126.251 743.573 124.54C744.74 122.76 745.392 120.364 745.529 117.352L749.03 121.357C748.686 125.258 747.726 128.544 746.147 131.214C744.637 133.883 742.509 135.937 739.764 137.374C737.087 138.743 733.793 139.428 729.881 139.428Z" fill="white"/>
<path d="M798.846 138.709C793.699 138.709 789.443 138.059 786.08 136.758C782.786 135.389 780.315 133.13 778.668 129.981C777.021 126.764 776.197 122.452 776.197 117.044L776.3 66.5273H789.684L789.581 117.968C789.581 120.706 790.301 122.828 791.743 124.334C793.252 125.772 795.38 126.49 798.125 126.49H806.876V138.709H798.846ZM767.343 92.7098V82.2368H806.876V92.7098H767.343Z" fill="white"/>
<path d="M852.556 137.99V121.459H850.188V103.08C850.188 99.863 849.399 97.4672 847.82 95.8928C846.242 94.3184 843.805 93.5312 840.511 93.5312C838.795 93.5312 836.736 93.5655 834.334 93.6339C831.932 93.7024 829.495 93.805 827.025 93.942C824.622 94.0104 822.46 94.1131 820.539 94.25V82.1342C822.117 81.9973 823.902 81.8604 825.892 81.7235C827.882 81.5866 829.907 81.5181 831.966 81.5181C834.094 81.4497 836.084 81.4154 837.937 81.4154C843.702 81.4154 848.472 82.1684 852.247 83.6743C856.091 85.1802 858.973 87.5418 860.895 90.759C862.885 93.9762 863.881 98.1859 863.881 103.388V137.99H852.556ZM834.54 139.428C830.491 139.428 826.922 138.709 823.833 137.271C820.813 135.834 818.445 133.78 816.73 131.111C815.082 128.441 814.259 125.224 814.259 121.459C814.259 117.352 815.254 113.998 817.244 111.397C819.303 108.796 822.152 106.845 825.789 105.544C829.495 104.244 833.819 103.594 838.761 103.594H851.733V112.116H838.555C835.261 112.116 832.721 112.937 830.937 114.58C829.221 116.154 828.363 118.208 828.363 120.741C828.363 123.273 829.221 125.327 830.937 126.901C832.721 128.475 835.261 129.263 838.555 129.263C840.545 129.263 842.364 128.92 844.011 128.236C845.727 127.483 847.134 126.251 848.232 124.54C849.399 122.76 850.051 120.364 850.188 117.352L853.689 121.357C853.345 125.258 852.385 128.544 850.806 131.214C849.296 133.883 847.168 135.937 844.423 137.374C841.746 138.743 838.452 139.428 834.54 139.428Z" fill="white"/>
<path d="M904.02 139.941C899.147 139.941 894.926 139.12 891.357 137.477C887.857 135.834 884.905 133.644 882.503 130.905C880.17 128.167 878.42 125.087 877.253 121.665C876.086 118.242 875.503 114.751 875.503 111.192V109.241C875.503 105.476 876.086 101.882 877.253 98.4597C878.488 94.9687 880.307 91.8884 882.709 89.2188C885.111 86.4808 888.063 84.3246 891.563 82.7502C895.132 81.1074 899.25 80.286 903.917 80.286C908.79 80.286 913.148 81.2443 916.991 83.1609C920.835 85.0091 923.889 87.6102 926.154 90.9643C928.488 94.3184 929.792 98.2201 930.066 102.669H916.168C915.825 99.7945 914.589 97.3987 912.462 95.4821C910.403 93.5655 907.554 92.6072 903.917 92.6072C900.76 92.6072 898.117 93.3601 895.99 94.866C893.931 96.372 892.386 98.4597 891.357 101.129C890.327 103.73 889.813 106.742 889.813 110.165C889.813 113.45 890.293 116.428 891.254 119.098C892.284 121.767 893.828 123.855 895.887 125.361C898.014 126.867 900.725 127.62 904.02 127.62C906.491 127.62 908.618 127.175 910.403 126.285C912.187 125.395 913.594 124.163 914.624 122.589C915.722 121.014 916.408 119.235 916.683 117.25H930.581C930.306 121.767 928.968 125.737 926.566 129.16C924.232 132.514 921.109 135.149 917.197 137.066C913.354 138.983 908.961 139.941 904.02 139.941Z" fill="white"/>
<path d="M942.045 137.99V63.0363H956.355V106.777H953.884C953.884 101.164 954.604 96.4062 956.046 92.5045C957.487 88.6028 959.615 85.6252 962.429 83.5716C965.311 81.5181 968.949 80.4913 973.341 80.4913H973.959C980.342 80.4913 985.181 82.6818 988.475 87.0626C991.769 91.4435 993.416 97.8094 993.416 106.16V137.99H979.106V104.826C979.106 101.266 978.077 98.4597 976.018 96.4062C974.028 94.3527 971.385 93.3259 968.091 93.3259C964.591 93.3259 961.742 94.4896 959.546 96.8169C957.418 99.0758 956.355 102.053 956.355 105.75V137.99H942.045Z" fill="white"/>
<path d="M1042.67 137.99V121.459H1040.3V103.08C1040.3 99.863 1039.51 97.4672 1037.94 95.8928C1036.36 94.3184 1033.92 93.5312 1030.63 93.5312C1028.91 93.5312 1026.85 93.5655 1024.45 93.6339C1022.05 93.7024 1019.61 93.805 1017.14 93.942C1014.74 94.0104 1012.58 94.1131 1010.65 94.25V82.1342C1012.23 81.9973 1014.02 81.8604 1016.01 81.7235C1018 81.5866 1020.02 81.5181 1022.08 81.5181C1024.21 81.4497 1026.2 81.4154 1028.05 81.4154C1033.82 81.4154 1038.59 82.1684 1042.36 83.6743C1046.21 85.1802 1049.09 87.5418 1051.01 90.759C1053 93.9762 1054 98.1859 1054 103.388V137.99H1042.67ZM1024.66 139.428C1020.61 139.428 1017.04 138.709 1013.95 137.271C1010.93 135.834 1008.56 133.78 1006.84 131.111C1005.2 128.441 1004.37 125.224 1004.37 121.459C1004.37 117.352 1005.37 113.998 1007.36 111.397C1009.42 108.796 1012.27 106.845 1015.9 105.544C1019.61 104.244 1023.93 103.594 1028.88 103.594H1041.85V112.116H1028.67C1025.38 112.116 1022.84 112.937 1021.05 114.58C1019.34 116.154 1018.48 118.208 1018.48 120.741C1018.48 123.273 1019.34 125.327 1021.05 126.901C1022.84 128.475 1025.38 129.263 1028.67 129.263C1030.66 129.263 1032.48 128.92 1034.13 128.236C1035.84 127.483 1037.25 126.251 1038.35 124.54C1039.51 122.76 1040.17 120.364 1040.3 117.352L1043.8 121.357C1043.46 125.258 1042.5 128.544 1040.92 131.214C1039.41 133.883 1037.28 135.937 1034.54 137.374C1031.86 138.743 1028.57 139.428 1024.66 139.428Z" fill="white"/>
<path d="M1072 137.99V82.2368H1086.31V137.99H1072ZM1064.18 92.9152V82.2368H1086.31V92.9152H1064.18ZM1077.25 75.5629C1074.44 75.5629 1072.34 74.8441 1070.97 73.4067C1069.67 71.9007 1069.02 70.0183 1069.02 67.7595C1069.02 65.5006 1069.67 63.6524 1070.97 62.2149C1072.34 60.7775 1074.44 60.0587 1077.25 60.0587C1080.07 60.0587 1082.12 60.7775 1083.43 62.2149C1084.73 63.6524 1085.38 65.5006 1085.38 67.7595C1085.38 70.0183 1084.73 71.9007 1083.43 73.4067C1082.12 74.8441 1080.07 75.5629 1077.25 75.5629Z" fill="white"/>
<path d="M1102.8 137.99V82.2368H1114.13V106.16H1113.1C1113.1 100.479 1113.85 95.7559 1115.36 91.9911C1116.87 88.1578 1119.1 85.2829 1122.05 83.3663C1125.07 81.4497 1128.82 80.4913 1133.28 80.4913H1133.89C1140.55 80.4913 1145.6 82.6475 1149.03 86.96C1152.46 91.2039 1154.18 97.5699 1154.18 106.058V137.99H1139.87V104.826C1139.87 101.403 1138.87 98.6308 1136.88 96.5089C1134.96 94.3869 1132.28 93.3259 1128.85 93.3259C1125.35 93.3259 1122.5 94.4211 1120.3 96.6115C1118.18 98.7335 1117.11 101.608 1117.11 105.236V137.99H1102.8Z" fill="white"/>
<defs>
<linearGradient id="paint0_linear_466_24" x1="587.943" y1="56.2885" x2="517.173" y2="125.819" gradientUnits="userSpaceOnUse">
<stop stop-color="#F46837"/>
<stop offset="1" stop-color="#945DD6"/>
</linearGradient>
<linearGradient id="paint1_linear_466_24" x1="587.995" y1="57.0902" x2="517.174" y2="127.036" gradientUnits="userSpaceOnUse">
<stop stop-color="#F46837"/>
<stop offset="1" stop-color="#945DD6"/>
</linearGradient>
<linearGradient id="paint2_linear_466_24" x1="469.337" y1="143.064" x2="540.085" y2="75.3349" gradientUnits="userSpaceOnUse">
<stop stop-color="#13ADC7"/>
<stop offset="1" stop-color="#945DD6"/>
</linearGradient>
<linearGradient id="paint3_linear_466_24" x1="468.729" y1="143.672" x2="538.868" y2="73.5105" gradientUnits="userSpaceOnUse">
<stop stop-color="#13ADC7"/>
<stop offset="1" stop-color="#945DD6"/>
</linearGradient>
</defs>
</svg>
