<svg width="180" height="33" fill="none" xmlns="http://www.w3.org/2000/svg"><style>.prefix__logo-fill{fill:#fff}</style><path fill-rule="evenodd" clip-rule="evenodd" d="M23.997 24.53l2.34-2.342 3.14 3.135-2.357 2.342a5.533 5.533 0 01-7.822 0l-4.704-4.7a5.536 5.536 0 010-7.823l4.76-4.763 3.124 3.14-4.745 4.747a1.106 1.106 0 000 1.57l4.699 4.694a1.107 1.107 0 001.565 0z" fill="url(#prefix__paint0_linear_449_28)"/><path fill-rule="evenodd" clip-rule="evenodd" d="M37.733 10.65a1.184 1.184 0 01-.234.357L26.253 22.255l3.13 3.135 11.234-11.242a5.536 5.536 0 000-7.824l-4.699-4.705a5.534 5.534 0 00-7.822 0l-3.278 3.263 3.134 3.135 3.268-3.268a1.107 1.107 0 011.564 0l4.694 4.694a1.108 1.108 0 01.244 1.208h.011z" fill="url(#prefix__paint1_linear_449_28)"/><path d="M24.54 14.722L22.2 17.063v.016l-2.405 2.388 3.14 3.134 4.741-4.75a5.534 5.534 0 000-7.822l-4.704-4.704a5.535 5.535 0 00-7.824 0l-5.955 5.954 3.14 3.13 5.944-5.945a1.107 1.107 0 011.565 0l4.7 4.694a1.107 1.107 0 010 1.564z" fill="url(#prefix__paint2_linear_449_28)"/><path d="M4.514 22.335c.054-.133.139-.256.24-.357L7.1 19.632l-.005-.011 3.14-3.129 2.147-2.135-3.135-3.14-7.629 7.638a5.534 5.534 0 000 7.822l4.705 4.704a5.536 5.536 0 007.824 0l3.175-3.18-3.134-3.13-3.165 3.165a1.106 1.106 0 01-1.57 0l-4.7-4.693a1.107 1.107 0 01-.24-1.208z" fill="url(#prefix__paint3_linear_449_28)"/><path d="M55.645 26.613c-.994 0-1.908-.182-2.745-.547a6.407 6.407 0 01-2.169-1.538 7.037 7.037 0 01-1.41-2.294 8.126 8.126 0 01-.497-2.867v-.547c0-1.008.157-1.955.47-2.841a7.478 7.478 0 011.36-2.32 6.201 6.201 0 012.116-1.538c.836-.382 1.76-.573 2.77-.573 1.115 0 2.09.243 2.927.73.854.469 1.533 1.181 2.038 2.137.506.956.784 2.155.837 3.597L60.27 16.76V7.117h3.633v19.027h-2.875v-6.02h.627c-.052 1.441-.348 2.649-.888 3.622-.54.956-1.255 1.677-2.143 2.163-.871.47-1.864.704-2.98.704zm.81-3.05c.714 0 1.367-.156 1.96-.469.592-.33 1.063-.799 1.41-1.407.367-.626.55-1.355.55-2.19v-1.042c0-.834-.183-1.53-.55-2.085a3.572 3.572 0 00-1.436-1.303 4.078 4.078 0 00-1.934-.47c-.784 0-1.481.192-2.091.574-.592.365-1.063.886-1.411 1.564-.331.678-.497 1.468-.497 2.372 0 .903.174 1.694.523 2.372.348.66.819 1.172 1.411 1.537.61.365 1.298.548 2.065.548zM76.635 26.144v-4.196h-.6v-4.666c0-.817-.201-1.425-.602-1.824-.4-.4-1.019-.6-1.855-.6a68.629 68.629 0 00-3.423.104c-.61.018-1.16.044-1.647.079v-3.076c.4-.035.854-.07 1.359-.104.505-.035 1.02-.052 1.542-.052.54-.018 1.045-.026 1.515-.026 1.464 0 2.675.19 3.633.573.976.382 1.707.982 2.195 1.799.505.816.758 1.885.758 3.205v8.784h-2.875zm-4.573.365c-1.028 0-1.934-.183-2.718-.547a4.274 4.274 0 01-1.803-1.564c-.418-.678-.627-1.495-.627-2.45 0-1.043.252-1.894.758-2.555.522-.66 1.245-1.155 2.169-1.485.94-.33 2.038-.495 3.293-.495h3.292v2.163h-3.345c-.836 0-1.48.208-1.934.625-.435.4-.653.921-.653 1.564s.218 1.164.653 1.564c.453.4 1.098.6 1.934.6.505 0 .967-.087 1.385-.261a2.413 2.413 0 001.072-.938c.296-.452.462-1.06.496-1.825l.889 1.017c-.087.99-.331 1.824-.732 2.502a3.899 3.899 0 01-1.62 1.564c-.68.347-1.516.52-2.509.52zM89.569 26.326c-1.307 0-2.387-.165-3.24-.495a3.635 3.635 0 01-1.882-1.72c-.419-.817-.628-1.911-.628-3.284l.026-12.824h3.398l-.026 13.058c0 .695.183 1.234.548 1.616.384.365.924.548 1.62.548h2.222v3.101h-2.038zM81.572 14.65V11.99h10.035v2.659H81.572zM103.203 26.144v-4.196h-.601v-4.666c0-.817-.201-1.425-.601-1.824-.401-.4-1.02-.6-1.856-.6a68.629 68.629 0 00-3.423.104c-.61.018-1.159.044-1.647.079v-3.076c.4-.035.854-.07 1.36-.104.504-.035 1.018-.052 1.541-.052.54-.018 1.045-.026 1.516-.026 1.463 0 2.674.19 3.632.573.976.382 1.708.982 2.196 1.799.505.816.757 1.885.757 3.205v8.784h-2.874zm-4.574.365c-1.028 0-1.934-.183-2.718-.547a4.274 4.274 0 01-1.803-1.564c-.418-.678-.627-1.495-.627-2.45 0-1.043.253-1.894.758-2.555.523-.66 1.246-1.155 2.169-1.485.94-.33 2.038-.495 3.293-.495h3.293v2.163h-3.345c-.837 0-1.481.208-1.934.625-.436.4-.654.921-.654 1.564s.218 1.164.654 1.564c.453.4 1.097.6 1.934.6.505 0 .966-.087 1.385-.261a2.417 2.417 0 001.071-.938c.296-.452.462-1.06.497-1.825l.888 1.017c-.087.99-.331 1.824-.732 2.502a3.897 3.897 0 01-1.62 1.564c-.679.347-1.516.52-2.509.52zM116.267 26.64c-1.237 0-2.309-.21-3.215-.626a6.773 6.773 0 01-2.247-1.668A7.117 7.117 0 01109.472 22a8.19 8.19 0 01-.444-2.659v-.495c0-.956.148-1.868.444-2.737a6.905 6.905 0 011.385-2.346 6.488 6.488 0 012.247-1.642c.906-.417 1.952-.625 3.136-.625 1.237 0 2.344.243 3.319.73.976.469 1.751 1.13 2.326 1.98.593.852.924 1.843.993 2.972h-3.528a2.824 2.824 0 00-.941-1.825c-.522-.486-1.245-.73-2.169-.73-.801 0-1.472.192-2.012.574-.523.382-.915.912-1.176 1.59-.261.66-.392 1.425-.392 2.294 0 .834.122 1.59.366 2.267.261.678.653 1.208 1.176 1.59.54.382 1.228.574 2.065.574.627 0 1.167-.114 1.62-.34.453-.225.81-.538 1.071-.938.279-.4.453-.851.523-1.355h3.528c-.07 1.147-.409 2.155-1.019 3.023-.593.852-1.385 1.52-2.378 2.007-.976.487-2.091.73-3.345.73zM125.919 26.144V7.117h3.633v11.104h-.628c0-1.425.183-2.633.549-3.623.366-.99.906-1.747 1.62-2.268.732-.521 1.656-.782 2.771-.782h.156c1.621 0 2.849.556 3.685 1.668.836 1.112 1.255 2.728 1.255 4.848v8.08h-3.633v-8.419c0-.903-.261-1.616-.784-2.137-.505-.521-1.176-.782-2.012-.782-.889 0-1.612.296-2.169.886-.54.574-.81 1.33-.81 2.268v8.184h-3.633zM151.463 26.144v-4.196h-.601v-4.666c0-.817-.201-1.425-.601-1.824-.401-.4-1.02-.6-1.856-.6a68.524 68.524 0 00-3.423.104c-.61.018-1.159.044-1.647.079v-3.076c.401-.035.854-.07 1.359-.104a22.491 22.491 0 011.542-.052c.54-.018 1.045-.026 1.516-.026 1.463 0 2.674.19 3.632.573.976.382 1.708.982 2.196 1.799.505.816.757 1.885.757 3.205v8.784h-2.874zm-4.574.365c-1.027 0-1.933-.183-2.717-.547a4.277 4.277 0 01-1.804-1.564c-.418-.678-.627-1.495-.627-2.45 0-1.043.253-1.894.758-2.555.523-.66 1.246-1.155 2.169-1.485.941-.33 2.038-.495 3.293-.495h3.293v2.163h-3.345c-.837 0-1.481.208-1.934.625-.436.4-.654.921-.654 1.564s.218 1.164.654 1.564c.453.4 1.097.6 1.934.6.505 0 .967-.087 1.385-.261a2.417 2.417 0 001.071-.938c.296-.452.462-1.06.497-1.825l.888 1.017c-.087.99-.331 1.824-.731 2.502a3.905 3.905 0 01-1.621 1.564c-.679.347-1.516.52-2.509.52zM158.908 26.144V11.99h3.632v14.153h-3.632zm-1.986-11.442v-2.71h5.618v2.71h-5.618zm3.319-4.405c-.715 0-1.246-.183-1.594-.547-.331-.383-.497-.86-.497-1.434 0-.573.166-1.042.497-1.407.348-.365.879-.548 1.594-.548.714 0 1.237.183 1.568.548.331.365.496.834.496 1.407 0 .574-.165 1.051-.496 1.434-.331.364-.854.547-1.568.547zM166.727 26.144V11.99h2.875v6.073h-.262c0-1.442.192-2.641.575-3.597.384-.973.95-1.703 1.699-2.19.766-.486 1.716-.729 2.848-.729h.157c1.69 0 2.971.547 3.842 1.642.871 1.077 1.307 2.693 1.307 4.848v8.106h-3.633v-8.419c0-.869-.253-1.572-.758-2.11-.488-.54-1.167-.809-2.038-.809-.889 0-1.612.278-2.169.834-.54.539-.811 1.269-.811 2.19v8.314h-3.632z" class="prefix__logo-fill"/><defs><linearGradient id="prefix__paint0_linear_449_28" x1="36.032" y1="5.404" x2="18.067" y2="23.054" gradientUnits="userSpaceOnUse"><stop stop-color="#F46837"/><stop offset="1" stop-color="#945DD6"/></linearGradient><linearGradient id="prefix__paint1_linear_449_28" x1="36.045" y1="5.607" x2="18.067" y2="23.363" gradientUnits="userSpaceOnUse"><stop stop-color="#F46837"/><stop offset="1" stop-color="#945DD6"/></linearGradient><linearGradient id="prefix__paint2_linear_449_28" x1="5.924" y1="27.432" x2="23.883" y2="10.239" gradientUnits="userSpaceOnUse"><stop stop-color="#13ADC7"/><stop offset="1" stop-color="#945DD6"/></linearGradient><linearGradient id="prefix__paint3_linear_449_28" x1="5.77" y1="27.586" x2="23.574" y2="9.776" gradientUnits="userSpaceOnUse"><stop stop-color="#13ADC7"/><stop offset="1" stop-color="#945DD6"/></linearGradient></defs></svg>
